<?xml version="1.0" encoding="UTF-8"?>
<svg version="1.1" xmlns="http://www.w3.org/2000/svg" width="1000" height="400">
<path d="M0 0 C1.51085582 -0.00543185 3.02170634 -0.01256043 4.532547 -0.02124023 C8.60495254 -0.03935048 12.67694909 -0.03245749 16.74936104 -0.01972389 C21.02965447 -0.00953194 25.30991502 -0.01900665 29.59020996 -0.02526855 C36.77553535 -0.03252704 43.9606958 -0.02300469 51.14599609 -0.00390625 C59.42982819 0.01785908 67.71326635 0.01080643 75.99708891 -0.01121187 C83.13461262 -0.02941735 90.27201837 -0.03189914 97.40955782 -0.0214572 C101.66146575 -0.01525045 105.91318908 -0.01430834 110.16508484 -0.02760315 C114.16427049 -0.03923639 118.16295279 -0.0310012 122.16208458 -0.00802612 C123.62166703 -0.00277861 125.08129252 -0.00418419 126.54085732 -0.01307678 C140.10540804 -0.08804311 150.58143978 2.51473361 160.38085938 12.17773438 C167.48736931 19.95767916 169.84474514 27.58181806 169.85116577 37.96618652 C169.85773915 39.25718254 169.85773915 39.25718254 169.86444533 40.57425928 C169.87781942 43.46357092 169.88400914 46.35285205 169.89013672 49.2421875 C169.89803892 51.31195208 169.90630795 53.38171529 169.91491699 55.45147705 C169.94112842 62.25474738 169.95644607 69.05802382 169.97070312 75.86132812 C169.9760636 78.20502221 169.98144111 80.54871627 169.98683548 82.89241028 C170.00846495 92.64442156 170.02720008 102.39643119 170.03845787 112.14846039 C170.05468606 126.1134478 170.08783593 140.0781565 170.14485872 154.04303885 C170.18360302 163.86742958 170.20309603 173.69174592 170.20837843 183.51621103 C170.21202635 189.38078171 170.22398818 195.24505506 170.25648117 201.10954285 C170.28663968 206.6319501 170.29284568 212.15388133 170.28109741 217.67635345 C170.28087732 219.69670642 170.28912909 221.71708197 170.30675125 223.73735809 C170.42269436 237.80195238 169.46960286 249.76125562 159.20507812 260.47460938 C148.83111973 268.92566894 137.9411475 270.68434828 124.95117188 270.61523438 C123.94005844 270.61381943 122.92894501 270.61240448 121.88719177 270.61094666 C118.67801882 270.60537773 115.46891727 270.592831 112.25976562 270.58007812 C110.07552185 270.57505911 107.89127697 270.5704969 105.70703125 270.56640625 C100.37041861 270.55541849 95.03384722 270.53871149 89.69726562 270.51757812 C89.64813522 269.96277771 89.59900482 269.40797729 89.54838562 268.83636475 C89.3169088 266.26591272 89.07548911 263.69648164 88.83398438 261.12695312 C88.71839172 259.81863525 88.71839172 259.81863525 88.60046387 258.48388672 C86.36369488 235.06551118 76.73846411 212.60159377 61.69726562 194.51757812 C64.68887993 192.14540396 67.77025453 190.3741797 71.13476562 188.58007812 C89.9160334 177.68740146 101.87763754 160.05529908 107.93554688 139.42773438 C111.93952323 124.13049137 110.74658657 107.39978722 105.69726562 92.51757812 C105.34664062 91.46570313 104.99601563 90.41382813 104.63476562 89.33007812 C97.19867649 69.50050709 81.95287222 55.33500495 63.19726562 46.26757812 C52.80515125 41.6337578 42.57991533 39.39686036 31.21337891 39.31225586 C30.38344925 39.30235626 29.55351959 39.29245667 28.69844055 39.28225708 C25.97151484 39.25082001 23.24457174 39.22595544 20.51757812 39.20117188 C18.62042809 39.18058696 16.72328248 39.15959009 14.82614136 39.13819885 C9.84496661 39.08313693 4.86375156 39.03365792 -0.11749268 38.98535156 C-5.20531784 38.93502026 -10.29308485 38.87939502 -15.38085938 38.82421875 C-25.35476796 38.71683154 -35.32872716 38.61534378 -45.30273438 38.51757812 C-45.38611298 27.64580175 -42.46082509 19.80369481 -35.30273438 11.51757812 C-25.13071071 1.47990194 -13.79405163 -0.08404213 0 0 Z " fill="#FED800" transform="translate(782.302734375,66.482421875)"/>
<path d="M0 0 C1.75739832 0.00138269 1.75739832 0.00138269 3.55029964 0.00279331 C4.20043889 0.00193889 4.85057814 0.00108446 5.52041858 0.00020415 C7.71464604 -0.00145243 9.90879826 0.00407358 12.10301876 0.00952244 C13.66964879 0.0098043 15.23627895 0.0096466 16.8029089 0.00907993 C21.06925401 0.00879191 25.33557126 0.0146894 29.60190988 0.02165389 C34.05556076 0.02788665 38.50921221 0.02849116 42.96286678 0.0296793 C51.40246468 0.03279285 59.84204969 0.04100655 68.2816419 0.05102879 C77.88728468 0.0621892 87.49292806 0.06770019 97.09857571 0.07272422 C116.86365443 0.08318914 136.62872153 0.10078904 156.39379025 0.12304783 C156.2779048 2.12359664 156.1505797 4.12348374 156.01879025 6.12304783 C155.94918087 7.23679783 155.8795715 8.35054783 155.80785275 9.49804783 C155.39379025 13.12304783 155.39379025 13.12304783 153.39379025 21.12304783 C108.51379025 21.12304783 63.63379025 21.12304783 17.39379025 21.12304783 C16.07379025 28.71304783 14.75379025 36.30304783 13.39379025 44.12304783 C12.4192186 49.28965279 11.43393397 54.4502134 10.4133215 59.60742283 C10.15222775 60.93496639 9.89130178 62.26254296 9.63053036 63.59014988 C9.09529337 66.31220945 8.55835727 69.03392575 8.02001095 71.75537205 C7.33100528 75.2389955 6.6461724 78.72342488 5.96249008 82.2080965 C5.42951021 84.92265752 4.89461138 87.63683755 4.35909748 90.3508997 C3.98310683 92.25797073 3.60857719 94.16532964 3.2340765 96.07269382 C3.00681377 97.21949619 2.77955105 98.36629856 2.54540157 99.54785252 C2.24706165 101.05928837 2.24706165 101.05928837 1.94269466 102.60125828 C1.39379025 105.12304783 1.39379025 105.12304783 0.39379025 108.12304783 C38.67379025 108.12304783 76.95379025 108.12304783 116.39379025 108.12304783 C114.41379025 118.02304783 114.41379025 118.02304783 112.39379025 128.12304783 C74.11379025 128.12304783 35.83379025 128.12304783 -3.60620975 128.12304783 C-4.26620975 132.41304783 -4.92620975 136.70304783 -5.60620975 141.12304783 C-6.24272214 144.61972577 -6.89381847 148.10782161 -7.57740116 151.59497166 C-7.76301105 152.55271992 -7.94862095 153.51046818 -8.13985538 154.49723911 C-8.74344642 157.60865383 -9.35056929 160.71936743 -9.95777225 163.83007908 C-10.38111876 166.00864041 -10.80424129 168.18724528 -11.22715092 170.36589146 C-12.33294502 176.05928413 -13.44175195 181.75208586 -14.55121708 187.44476414 C-15.68597441 193.2701098 -16.81784032 199.09601717 -17.94995975 204.92187595 C-20.1659025 216.32281429 -22.38530031 227.72307596 -24.60620975 239.12304783 C-32.52620975 239.12304783 -40.44620975 239.12304783 -48.60620975 239.12304783 C-47.48121141 226.74806603 -47.48121141 226.74806603 -46.39655399 221.17688084 C-46.15312763 219.91232059 -45.90970127 218.64776035 -45.65889835 217.3448801 C-45.39046028 215.97990045 -45.12191735 214.61494142 -44.85328007 213.25000095 C-44.5683416 211.78084336 -44.28388622 210.311592 -43.99987125 208.84225559 C-43.22917117 204.86236736 -42.45175418 200.88381799 -41.67312431 196.90547466 C-40.843753 192.66151266 -40.02072859 188.41631973 -39.19696903 184.1712656 C-37.62314577 176.06596407 -36.04377805 167.96175337 -34.46237445 159.8579278 C-32.54337484 150.02273636 -30.63138573 140.1861849 -28.719491 130.34961033 C-26.67706 119.84254023 -24.63351443 109.33569114 -22.58484745 98.82983494 C-19.44080561 82.70499016 -16.30352017 66.57896274 -13.19767714 50.44671059 C-12.73199081 48.02862218 -12.26580087 45.6106315 -11.79939747 43.19268131 C-11.57423541 42.02537062 -11.57423541 42.02537062 -11.34452462 40.8344779 C-11.04695774 39.29189963 -10.74936701 37.74932595 -10.45175147 36.20675707 C-9.59603928 31.76980697 -8.7437655 27.3322138 -7.89404488 22.89411259 C-7.50129847 20.84594657 -7.10682639 18.79812236 -6.71154881 16.75044346 C-6.23359276 14.27424954 -5.75850376 11.7974999 -5.28675938 9.32011509 C-4.97414787 7.70729397 -4.97414787 7.70729397 -4.65522099 6.0618906 C-4.47551132 5.12571651 -4.29580166 4.18954243 -4.11064625 3.22499943 C-3.37420316 0.15629257 -3.2288364 0.1524441 0 0 Z " fill="#FED800" transform="translate(91.60620975494385,84.87695217132568)"/>
<path d="M0 0 C17.20062506 -0.61248517 34.50733433 4.32311811 47.37890625 15.89453125 C60.29175444 29.32504373 63.74850752 48.64980984 63.609375 66.62109375 C63.21496425 75.11970635 62.50946504 83.89963984 60.4453125 92.15625 C15.8953125 92.15625 -28.6546875 92.15625 -74.5546875 92.15625 C-76.99952913 111.71498303 -77.51209125 130.55542789 -65.5546875 147.15625 C-57.95505755 155.92876152 -46.6551976 160.27303696 -35.27807617 161.37719727 C-16.54240777 162.32780589 -0.09195889 157.86846607 14.3203125 145.34375 C21.22323683 138.73221549 25.72207436 131.42191675 30.4453125 123.15625 C37.3753125 123.15625 44.3053125 123.15625 51.4453125 123.15625 C48.21620744 139.30177532 33.50669277 154.90243077 20.4453125 164.15625 C12.94123454 169.0617053 5.01447867 173.44399098 -3.5546875 176.15625 C-4.45960938 176.45402344 -5.36453125 176.75179687 -6.296875 177.05859375 C-26.25271777 182.45811729 -49.9835182 181.18181019 -68.4921875 171.90625 C-81.96862452 164.06026504 -90.77540933 153.01927992 -95.5546875 138.15625 C-103.3197333 108.43701849 -96.61594107 75.61319519 -81.83203125 49.0625 C-67.13365916 25.2236824 -46.51564151 8.77627762 -19.21459961 2.30029297 C-12.78855105 0.88925074 -6.53779717 0.39986527 0 0 Z M-55.12109375 42.0390625 C-63.77636567 53.02291011 -68.15544506 63.55928023 -71.5546875 77.15625 C-34.2646875 77.15625 3.0253125 77.15625 41.4453125 77.15625 C45.64074564 64.56995058 43.42921663 49.87319165 38.0390625 38.01171875 C32.47386294 28.0407362 24.43495254 21.96507253 13.57470703 18.57177734 C-11.68285126 11.64860479 -38.30529536 23.15008349 -55.12109375 42.0390625 Z " fill="#FED800" transform="translate(384.5546875,148.84375)"/>
<path d="M0 0 C1.52913277 -0.00810448 1.52913277 -0.00810448 3.0891571 -0.01637268 C6.42294312 -0.0287706 9.75585037 -0.0124293 13.08959961 0.00561523 C15.42646835 0.00546005 17.76333735 0.00396788 20.10020447 0.00120544 C24.98293523 -0.00017452 29.86537082 0.01231323 34.74804688 0.03515625 C40.9875196 0.06355497 47.22650297 0.06079361 53.466012 0.04806614 C58.28661739 0.04109166 63.10711086 0.04891824 67.92770195 0.06132317 C70.22766121 0.06581934 72.52763256 0.06619061 74.82759285 0.06225777 C78.04807046 0.05932779 81.26788742 0.07593764 84.48828125 0.09765625 C85.8951973 0.09090378 85.8951973 0.09090378 87.33053589 0.08401489 C98.08560078 0.20373947 106.37287757 3.02415554 114.17944336 10.50170898 C121.93271717 18.96598171 123.73946019 26.4719297 123.45678711 37.88061523 C122.77325085 46.80509575 119.40693753 53.08073927 113.17944336 59.50170898 C104.51188902 66.88279886 94.83049117 68.96040688 83.671875 68.90576172 C82.17463142 68.91605659 82.17463142 68.91605659 80.6471405 68.92655945 C77.37781171 68.94472291 74.10896758 68.94100494 70.83959961 68.93530273 C68.54853664 68.9398694 66.25747504 68.94517641 63.96641541 68.95118713 C59.17612119 68.96009764 54.38599388 68.95771835 49.59570312 68.94775391 C43.47842286 68.93626462 37.3617199 68.95648627 31.24451542 68.98567104 C26.516519 69.00407804 21.7886598 69.00373162 17.06063652 68.99803352 C14.80614855 68.99788087 12.55165095 69.00387826 10.29719734 69.016325 C7.13657239 69.03131888 3.97699985 69.02049606 0.81640625 69.00341797 C-0.10081207 69.01308594 -1.0180304 69.02275391 -1.96304321 69.03271484 C-11.8302718 68.92191085 -21.41423883 65.72940396 -28.59399414 58.78686523 C-35.8327226 51.07471783 -39.20642856 42.50728591 -39.03149414 31.95874023 C-38.26113569 22.98549092 -34.44864662 15.05875372 -28.03930664 8.74780273 C-19.83470584 2.03953281 -10.38103523 -0.10723518 0 0 Z " fill="#FED800" transform="translate(722.820556640625,151.498291015625)"/>
<path d="M0 0 C8.25 0 16.5 0 25 0 C25.96679688 1.94519531 26.93359375 3.89039063 27.9296875 5.89453125 C34.7401948 19.57948016 41.59318381 33.22990964 48.78662109 46.71875 C51.08159097 51.03347808 53.35109624 55.36164482 55.625 59.6875 C56.47125808 61.29562348 57.31760272 62.90370142 58.1640625 64.51171875 C58.76992188 65.66285156 59.37578125 66.81398438 60 68 C62.31752065 68.23511374 62.31752065 68.23511374 64.35546875 65.65625 C65.30522082 64.60934694 66.24886814 63.55688469 67.1875 62.5 C67.68580322 61.94755615 68.18410645 61.3951123 68.69750977 60.82592773 C71.85646864 57.31455055 74.96582282 53.76113462 78.05859375 50.19140625 C81.18069199 46.66726719 84.39597143 43.22954632 87.59741211 39.77758789 C90.27401038 36.88635872 92.92311179 33.98110596 95.5 31 C98.58897828 27.42647611 101.78853356 23.96299937 105 20.5 C113.0949927 12.14715521 113.0949927 12.14715521 119.890625 2.80078125 C121.79288164 0.51357386 122.7682123 0.04064172 125.74438477 -0.48120117 C129.11898927 -0.59121754 132.43944056 -0.52239419 135.8125 -0.375 C136.98232422 -0.34792969 138.15214844 -0.32085937 139.35742188 -0.29296875 C142.24016135 -0.22237105 145.11913571 -0.12380574 148 0 C146.0114295 3.40722873 144.11368357 6.09200061 141.25 8.8125 C138.678856 11.31866924 136.21057847 13.8356825 133.875 16.5625 C130.36272954 20.64935849 126.68685883 24.57148232 123 28.5 C117.6666497 34.17446008 117.6666497 34.17446008 112.5 40 C108.55837208 44.58189235 104.39263874 48.95533415 100.26049805 53.36450195 C96.1979232 57.70386167 92.18944562 62.08518004 88.23046875 66.51953125 C86.53622584 68.40367179 84.83139222 70.27454083 83.11328125 72.13671875 C82.61723389 72.67466064 82.12118652 73.21260254 81.61010742 73.7668457 C80.64697278 74.80977976 79.68237846 75.85136846 78.71606445 76.89135742 C76.31229957 79.49583954 74.10113834 82.14861783 72 85 C78.61897358 96.86071649 85.24124685 108.71822254 92 120.5 C97.07510619 129.347237 102.06984047 138.2379426 107.03955078 147.14477539 C109.55663759 151.65263614 112.07741282 156.15660749 114.6640625 160.625 C115.04530273 161.2837915 115.42654297 161.94258301 115.81933594 162.62133789 C116.78946472 164.29034529 117.76554138 165.95589169 118.7421875 167.62109375 C120 170 120 170 120 172 C111.42 172 102.84 172 94 172 C92.2675 168.65875 90.535 165.3175 88.75 161.875 C84.61808132 153.93653284 80.42446695 146.03649314 76.125 138.1875 C75.40473633 136.87193115 75.40473633 136.87193115 74.66992188 135.52978516 C73.66250603 133.69022797 72.65501711 131.8507108 71.64746094 130.01123047 C68.82450854 124.85143574 66.00909032 119.68768315 63.20794678 114.51602173 C62.26421581 112.77620755 61.31597913 111.03883985 60.36767578 109.30151367 C59.79774902 108.24810791 59.22782227 107.19470215 58.640625 106.109375 C58.13047852 105.17061523 57.62033203 104.23185547 57.09472656 103.26464844 C56 101 56 101 56 99 C50.73961087 103.32871258 46.1111088 107.96317312 41.609375 113.0703125 C38.50285192 116.55817524 35.31941414 119.96779722 32.125 123.375 C26.95314821 128.89947805 21.81702761 134.45380851 16.7109375 140.0390625 C13.32005306 143.74699092 9.90836661 147.43565217 6.49755859 151.12524414 C3.97084117 153.85998118 1.44918272 156.59909808 -1.0625 159.34765625 C-1.55621094 159.88777344 -2.04992187 160.42789063 -2.55859375 160.984375 C-3.91487977 162.46930603 -5.26997977 163.95532008 -6.625 165.44140625 C-7.800625 166.70791016 -7.800625 166.70791016 -9 168 C-9.87543457 169.05707153 -9.87543457 169.05707153 -10.76855469 170.13549805 C-13.68851625 172.57529525 -15.31225469 172.46446559 -19.078125 172.390625 C-20.23828125 172.37773437 -21.3984375 172.36484375 -22.59375 172.3515625 C-24.40359375 172.30128906 -24.40359375 172.30128906 -26.25 172.25 C-27.47203125 172.23195313 -28.6940625 172.21390625 -29.953125 172.1953125 C-32.96954078 172.148181 -35.98437491 172.08239413 -39 172 C-35.5100003 167.83968095 -31.95634739 163.85537242 -28.0625 160.0625 C-25.11064208 157.14578324 -22.25445962 154.22037571 -19.5625 151.0625 C-16.69827645 147.71074904 -13.63665907 144.59443583 -10.5 141.5 C-7.38420877 138.42609473 -4.34122762 135.33297855 -1.5 132 C1.7830078 128.14877931 5.35404512 124.6171114 8.953125 121.06640625 C11.58023558 118.46094768 14.09993084 115.81546575 16.5 113 C19.77896427 109.15352268 23.34506388 105.62570674 26.93994141 102.07958984 C30.29122954 98.75612285 33.43271025 95.31404294 36.49609375 91.7265625 C38.55498359 89.36285001 40.75032538 87.18150266 43 85 C41.32326039 80.51668647 39.19271349 76.33134744 37 72.0859375 C36.41219505 70.94157478 36.41219505 70.94157478 35.81251526 69.77409363 C34.5440823 67.30648272 33.27223863 64.84065069 32 62.375 C31.12485645 60.67573189 30.2497752 58.97643168 29.37475586 57.27709961 C19.23200462 37.57300439 19.23200462 37.57300439 8.73828125 18.0546875 C8.18003662 17.03818115 7.62179199 16.0216748 7.04663086 14.97436523 C5.95417219 12.98968677 4.85750389 11.00731811 3.75610352 9.02758789 C3.02218384 7.69715454 3.02218384 7.69715454 2.2734375 6.33984375 C1.83435059 5.54956787 1.39526367 4.75929199 0.94287109 3.94506836 C0 2 0 2 0 0 Z " fill="#FED800" transform="translate(466,152)"/>
<path d="M0 0 C7.26 0 14.52 0 22 0 C20.67810866 8.89590397 19.15957491 17.72156259 17.44067383 26.54858398 C17.19111278 27.84082445 16.94155172 29.13306492 16.68442822 30.46446419 C16.00380894 33.98849237 15.32017364 37.51192929 14.63599586 41.03526807 C13.906443 44.79528497 13.17982437 48.55586891 12.45288086 52.31639099 C11.21539018 58.71600991 9.97620493 65.1152986 8.73574829 71.51434326 C6.81148188 81.4409444 4.89014231 91.36811065 2.96948242 101.29541016 C2.49076526 103.76968512 2.01204625 106.24395973 1.53332704 108.7182343 C1.21555096 110.36068027 0.89778019 112.00312726 0.58001477 113.64557528 C-0.36823759 118.54672538 -1.3167813 123.44781898 -2.26555032 128.34886909 C-5.91021275 147.17643634 -9.54557666 166.00572195 -13.15625 184.83984375 C-13.33885187 185.79196936 -13.52145374 186.74409496 -13.709589 187.72507286 C-15.32951142 196.17175992 -16.94793741 204.61872809 -18.56110191 213.06670856 C-19.11487946 215.96475734 -19.67020311 218.86250823 -20.22595215 221.76017952 C-20.59035857 223.66327527 -20.95257537 225.56678989 -21.31469727 227.47032166 C-21.52562012 228.56921219 -21.73654297 229.66810272 -21.95385742 230.80029297 C-22.13365646 231.74194305 -22.31345551 232.68359314 -22.498703 233.65377808 C-23 236 -23 236 -24 239 C-31.26 239 -38.52 239 -46 239 C-44.57645038 228.40087511 -42.7344858 217.9540254 -40.68701172 207.46191406 C-40.35457806 205.74482344 -40.02244901 204.02767382 -39.69059753 202.31047058 C-38.79447683 197.67787071 -37.89418393 193.04609061 -36.99314642 188.41444492 C-36.04008236 183.51122842 -35.09107129 178.60722755 -34.14163208 173.70330811 C-32.33707672 164.38576365 -30.52915605 155.06887571 -28.71990597 145.75224185 C-26.09459597 132.23263917 -23.4740542 118.71211223 -20.85382271 105.19152451 C-20.46009496 103.15988912 -20.06636671 101.12825384 -19.67263794 99.09661865 C-19.47954926 98.1002425 -19.28646057 97.10386634 -19.08752072 96.07729697 C-17.96816818 90.30182501 -16.8477943 84.52655251 -15.72642767 78.75147128 C-15.01988534 75.11239893 -14.31379537 71.47323893 -13.60787988 67.83404493 C-13.26465339 66.06476616 -12.92130618 64.29551081 -12.57783294 62.52627993 C-10.60654572 52.36909022 -8.65594052 42.208299 -6.7354126 32.04138184 C-6.55013366 31.06205869 -6.36485473 30.08273555 -6.17396128 29.07373595 C-5.28096982 24.35313917 -4.3909038 19.63202978 -3.50637627 14.90983963 C-3.18887142 13.22785437 -2.87125157 11.5458908 -2.55349731 9.86395264 C-2.41026134 9.09288288 -2.26702536 8.32181312 -2.1194489 7.52737761 C-1.11352589 2.22705179 -1.11352589 2.22705179 0 0 Z " fill="#FED800" transform="translate(273,85)"/>
<path d="M0 0 C25.6300187 -0.51963544 46.02942182 0.04447115 66 18 C66.93392578 18.79470703 66.93392578 18.79470703 67.88671875 19.60546875 C78.80825462 29.54529353 86.26277104 45.40809488 88 60 C88.04455771 61.7677257 88.0591504 63.53647437 88.04296875 65.3046875 C88.03676514 66.18882324 88.03056152 67.07295898 88.02416992 67.98388672 C88.01619385 68.6492041 88.00821777 69.31452148 88 70 C80.5293643 70.07658183 73.05883129 70.12882159 65.58789062 70.16479492 C63.05074277 70.17980477 60.51362052 70.20021897 57.9765625 70.22631836 C54.31243538 70.26304605 50.64865377 70.27980508 46.984375 70.29296875 C45.30550201 70.31619453 45.30550201 70.31619453 43.5927124 70.33988953 C34.12242644 70.34187608 24.46910509 69.17708489 16.3125 64 C15.50425781 63.505 14.69601562 63.01 13.86328125 62.5 C12 61 12 61 11 58 C10.34 58 9.68 58 9 58 C7.59765625 56.12890625 7.59765625 56.12890625 6.0625 53.5625 C5.55847656 52.73878906 5.05445313 51.91507812 4.53515625 51.06640625 C0.96030274 43.92579555 -0.44572913 37.54784004 -0.29296875 29.58984375 C-0.28872391 28.73693253 -0.28447906 27.8840213 -0.28010559 27.00526428 C-0.2634863 24.3156705 -0.22586775 21.62686231 -0.1875 18.9375 C-0.17243143 17.0996203 -0.15874686 15.26172869 -0.14648438 13.42382812 C-0.11363805 8.94892204 -0.06197498 4.4745936 0 0 Z " fill="#FED800" transform="translate(737,267)"/>
<path d="M0 0 C7.26 0 14.52 0 22 0 C18.54245763 19.69661755 14.87093886 39.343843 11.07387638 58.97737694 C10.33236676 62.8134863 9.59294361 66.64999795 8.85321045 70.4864502 C7.61749629 76.89356709 6.38029648 83.3003956 5.14208984 89.70703125 C3.71268414 97.10302569 2.28546209 104.49943898 0.85940385 111.89607954 C-0.52297559 119.06601981 -1.90660608 126.23571805 -3.29090118 133.4052887 C-3.87656671 136.43861503 -4.46184149 139.47201637 -5.04680634 142.50547791 C-5.73201577 146.05837848 -6.41833541 149.61106284 -7.10552025 153.16358185 C-7.47696306 155.08517143 -7.84733027 157.00696884 -8.21766663 158.92877197 C-8.43899765 160.07178772 -8.66032867 161.21480347 -8.8883667 162.39245605 C-9.0800581 163.3848101 -9.2717495 164.37716415 -9.46924973 165.39958954 C-9.92090972 167.61249723 -10.45222605 169.80890418 -11 172 C-18.26 172 -25.52 172 -33 172 C-32.38549184 166.46942655 -31.75938354 161.27855128 -30.70959473 155.86367798 C-30.58285574 155.20473647 -30.45611676 154.54579497 -30.3255372 153.86688554 C-29.9059556 151.69004717 -29.48132164 149.51422768 -29.05664062 147.33837891 C-28.75239936 145.76564259 -28.44846795 144.19284631 -28.14482117 142.61999512 C-27.32374323 138.37188683 -26.49821 134.12465575 -25.67173576 129.87759447 C-24.80636528 125.42718092 -23.94475993 120.97603836 -23.0826416 116.5249939 C-21.63584355 109.0583383 -20.18624694 101.59223035 -18.73486328 94.12646484 C-17.05635272 85.49225361 -15.38179142 76.85728384 -13.70943499 68.22187865 C-12.09942038 59.90864497 -10.48711055 51.59585824 -8.87358093 43.28330612 C-8.18713359 39.74681644 -7.50140665 36.21018819 -6.8162384 32.67345047 C-6.01046428 28.51490356 -5.20265655 24.35675672 -4.39325905 20.19891357 C-4.09626686 18.67159785 -3.79996143 17.14414841 -3.50438499 15.61655807 C-3.10159001 13.53547753 -2.6963236 11.4548934 -2.29040527 9.37442017 C-2.06402122 8.20897989 -1.83763718 7.04353962 -1.60439301 5.84278297 C-1 3 -1 3 0 0 Z " fill="#FED800" transform="translate(639,152)"/>
<path d="M0 0 C2.21417713 1.87869575 2.99316258 3.08147328 4.0625 5.75 C4.40104474 10.52434884 3.48998974 14.05047134 1 18.125 C-3.01199625 21.71018814 -6.6435166 23.54944382 -12.0546875 23.87890625 C-15.66364663 23.65419747 -17.94359316 22.74593789 -20.9375 20.75 C-23.66712251 16.65556624 -23.83380469 13.53592881 -22.9375 8.75 C-20.86313599 4.3523483 -18.29926342 1.68526657 -13.93359375 -0.55859375 C-9.13700037 -2.22003608 -4.62879562 -1.96970026 0 0 Z " fill="#FED800" transform="translate(668.9375,94.25)"/>
</svg>
